<svg xmlns="http://www.w3.org/2000/svg" viewBox="0 0 200 50" fill="none">
  <defs>
    <linearGradient id="leafGrad" x1="0" y1="0" x2="1" y2="1">
      <stop offset="0%" stop-color="#2E7D32"/>
      <stop offset="100%" stop-color="#1B5E20"/>
    </linearGradient>
  </defs>
  <!-- Leaf icon -->
  <g transform="translate(0, 4) scale(0.85)">
    <path d="M20 8C20 8 12 4 8 12C4 20 12 32 24 36C36 32 44 20 40 12C36 4 28 8 28 8C28 8 24 14 24 20C24 26 20 8 20 8Z" fill="url(#leafGrad)" opacity="0.9"/>
    <path d="M24 12L24 32" stroke="#FEFBF7" stroke-width="1.5" stroke-linecap="round" opacity="0.6"/>
    <path d="M24 20L18 16" stroke="#FEFBF7" stroke-width="1" stroke-linecap="round" opacity="0.4"/>
    <path d="M24 24L30 19" stroke="#FEFBF7" stroke-width="1" stroke-linecap="round" opacity="0.4"/>
    <path d="M24 16L20 12" stroke="#FEFBF7" stroke-width="0.8" stroke-linecap="round" opacity="0.3"/>
  </g>
  <!-- Text: NAWIRI -->
  <text x="46" y="28" font-family="DM Sans, sans-serif" font-weight="700" font-size="20" fill="#1B5E20" letter-spacing="2">NAWIRI</text>
  <!-- Text: IMPACT AFRICA -->
  <text x="48" y="44" font-family="DM Sans, sans-serif" font-weight="400" font-size="10" fill="#8D6E63" letter-spacing="3">IMPACT AFRICA</text>
</svg>
